{
	"asset":{
		"version":"2.0",
		"generator":"Created using the official Cinema 4D glTF Exporter 1.000x284978"
	},
	"scenes":[{
		"nodes":[0]
	}],
	"meshes":[{
		"name":"Remesh",
		"primitives":[{
			"attributes":{
				"POSITION":1,
				"NORMAL":2,
				"TEXCOORD_0":3,
				"COLOR_0":4
			},
			"indices":0,
			"material":0
		}]
	}],
	"nodes":[{
		"name":"Remesh",
		"mesh":0
	}],
	"accessors":[{
		"bufferView":0,
		"type":"SCALAR",
		"componentType":5123,
		"count":7770,
		"byteOffset":0,
		"min":[0],
		"max":[1511]
	},
	{
		"bufferView":1,
		"type":"VEC3",
		"componentType":5126,
		"count":1512,
		"byteOffset":0,
		"min":[-94.6301040649414,
		-56.00367736816406,
		-94.65335845947266],
		"max":[95.15780639648438,
		55.139888763427737,
		95.16744232177735]
	},
	{
		"bufferView":1,
		"type":"VEC3",
		"componentType":5126,
		"count":1512,
		"byteOffset":12,
		"min":[-0.9986941814422607,
		-0.9994675517082214,
		-0.9988949298858643],
		"max":[0.9999380707740784,
		0.9987277984619141,
		0.9984121918678284]
	},
	{
		"bufferView":1,
		"type":"VEC2",
		"componentType":5126,
		"count":1512,
		"byteOffset":24,
		"min":[0.001073092920705676,
		0.001073092920705676],
		"max":[0.9989268779754639,
		0.9970433712005615]
	},
	{
		"bufferView":2,
		"type":"VEC4",
		"componentType":5126,
		"count":1512,
		"byteOffset":0,
		"min":[-6.506988525390625,
		-2.369565725326538,
		-10.467439651489258,
		1.0],
		"max":[5.461881637573242,
		2.3731517791748049,
		4.354738235473633,
		1.0]
	}],
	"bufferViews":[{
		"buffer":0,
		"byteOffset":0,
		"byteLength":15540,
		"target":34963
	},
	{
		"buffer":0,
		"byteOffset":15540,
		"byteLength":48384,
		"target":34962,
		"byteStride":32
	},
	{
		"buffer":0,
		"byteOffset":63924,
		"byteLength":24192,
		"target":34962
	}],
	"buffers":[{
		"uri":"data:application/octet-stream;base64,",
		"byteLength":88116
	}],
	"materials":[{
		"pbrMetallicRoughness":{
			"baseColorFactor":[0.8,
			0.8,
			0.8,
			1.0],
			"metallicFactor":0.0,
			"roughnessFactor":0.5
		},
		"emissiveFactor":[0.0,
		0.0,
		0.0],
		"alphaMode":"OPAQUE",
		"doubleSided":false,
		"name":"Mat"
	}]
}